<svg width="52" height="30" viewBox="0 0 52 30" fill="none" xmlns="http://www.w3.org/2000/svg">
<g clip-path="url(#clip0_608_194)">
<path d="M0.0065918 0H51.9936V30H0.0065918V0Z" fill="black"/>
<path d="M10.7178 9.18985C11.2181 8.98618 11.7518 8.87755 12.3055 8.87755C14.7293 8.87755 16.7528 10.9795 17.2153 13.7739L20.6509 12.9185C19.8637 8.17148 16.4259 4.59766 12.3055 4.59766C11.3604 4.59766 10.4554 4.78504 9.60596 5.13264L10.7178 9.18985Z" fill="#FFCB05"/>
<path d="M6.66399 22.7845L8.98772 19.5773C7.95149 18.4557 7.29773 16.8182 7.29773 14.9933C7.29773 13.171 7.95149 11.5335 8.98772 10.4146L6.66399 7.20471C4.90285 9.11111 3.79102 11.8947 3.79102 14.9933C3.79102 18.0945 4.90285 20.8781 6.66399 22.7845" fill="#00A4E0"/>
<path d="M17.2153 16.2207C16.7506 19.0124 14.7293 21.1116 12.3077 21.1116C11.7518 21.1116 11.2159 21.003 10.7178 20.7966L9.60596 24.8592C10.4554 25.2041 11.3627 25.3915 12.3077 25.3915C16.4237 25.3915 19.8593 21.8231 20.6509 17.0816L17.2153 16.2207Z" fill="#EF4123"/>
<path d="M23.6552 19.7104C23.5418 19.4877 23.3906 19.1319 23.2972 18.8685C22.7524 17.326 22.7279 15.7292 23.186 14.1976C23.6907 12.5166 24.6558 11.232 25.9033 10.5748C27.471 9.752 29.2032 9.91223 30.7064 11.0012C31.6604 11.6693 32.3363 12.7012 32.85 14.1622C32.9145 14.3496 32.9723 14.5479 33.0301 14.719L23.6552 19.7104ZM26.7861 13.0543C25.672 13.6381 25.0983 14.9145 25.2184 16.4081L29.9326 13.9287C29.1209 12.7664 28.0669 12.3808 26.7861 13.0543V13.0543ZM30.5196 18.4476C30.5174 18.4476 30.5174 18.4503 30.5174 18.4503L30.4195 18.3688C30.1371 18.9255 29.6991 19.3791 29.1454 19.6723C28.0914 20.2318 27.1152 20.0878 26.4125 19.3356L26.348 19.4551C26.348 19.4551 26.348 19.4524 26.3458 19.4524L25.1495 21.6385C25.4474 21.891 25.7654 22.1029 26.099 22.274C27.4198 22.9447 28.7718 22.9121 30.1038 22.2061C31.0666 21.6955 31.8227 20.9188 32.3386 19.933L30.5196 18.4476ZM36.3056 7.3595V19.5094L37.8533 20.2752L36.9749 22.7791L35.2671 21.9101C34.8847 21.7064 34.6223 21.3968 34.4266 21.0465C34.2376 20.6907 34.0975 20.1992 34.0975 19.542V7.3595H36.3056ZM40.3126 16.4163C40.3126 15.3816 40.6884 14.4528 41.2799 13.8228L39.6922 11.6611C38.616 12.8234 37.9378 14.5207 37.9378 16.4108C37.9355 18.3036 38.6137 20.0037 39.6878 21.166L41.2732 19.0043C40.684 18.3715 40.3126 17.4482 40.3126 16.4163V16.4163ZM43.1322 19.8624C42.8209 19.8624 42.5185 19.7973 42.2383 19.6832L41.48 22.4342C41.9982 22.646 42.5519 22.7628 43.13 22.7628C45.6427 22.7655 47.7397 20.5875 48.2266 17.6953L45.8962 17.1142C45.6316 18.6866 44.4953 19.8652 43.1322 19.8624V19.8624ZM43.1389 10.0697C42.563 10.0697 42.0093 10.1838 41.4912 10.3929L42.2428 13.1466C42.5252 13.0325 42.8254 12.9701 43.1367 12.9701C44.502 12.9728 45.6405 14.1568 45.8985 15.7319L48.2289 15.1562C47.7508 12.2586 45.6539 10.0725 43.1389 10.0697V10.0697Z" fill="white"/>
</g>
<defs>
<clipPath id="clip0_608_194">
<rect width="52" height="30" rx="4" fill="white"/>
</clipPath>
</defs>
</svg>
